<?xml version="1.0" encoding="utf-8"?>
<!-- Generator: Adobe Illustrator 14.0.0, SVG Export Plug-In  -->
<!DOCTYPE svg PUBLIC "-//W3C//DTD SVG 1.1//EN" "http://www.w3.org/Graphics/SVG/1.1/DTD/svg11.dtd" [
	<!ENTITY ns_flows "http://ns.adobe.com/Flows/1.0/">
]>
<svg version="1.1"
	 xmlns="http://www.w3.org/2000/svg" xmlns:xlink="http://www.w3.org/1999/xlink" xmlns:a="http://ns.adobe.com/AdobeSVGViewerExtensions/3.0/"
	 x="0px" y="0px" width="192px" height="101px" viewBox="0.5 0.5 192 101" enable-background="new 0.5 0.5 192 101"
	 xml:space="preserve">
<defs>
</defs>
<path fill="none" stroke="#C45E29" d="M170.231,39.87h-36.759h-29.344h-0.001c-2.024,0-3.666,1.641-3.666,3.666v54.413
	c0,2.024,1.641,3.666,3.666,3.666h29.345c2.024,0,3.666-1.642,3.666-3.666V75.457c0.037-1.726,1.261-3.159,2.893-3.505h30.201
	c2.024,0,3.666-1.642,3.666-3.666v-24.75C173.896,41.511,172.255,39.87,170.231,39.87z"/>
<path fill="none" stroke="#C45E29" d="M188.798,0.5H4.166C2.141,0.5,0.5,2.141,0.5,4.166v29.33c0,2.024,1.641,3.666,3.666,3.666
	H18.26c1.768,0.262,3.128,1.771,3.128,3.611v9.554h0.015v47.621c0,2.024,1.641,3.666,3.666,3.666h28.691
	c2.024,0,3.666-1.642,3.666-3.666V50.374h0.038V40.82c0-2,1.604-3.619,3.593-3.658h127.741c2.024,0,3.666-1.642,3.666-3.666V4.166
	C192.464,2.141,190.823,0.5,188.798,0.5z"/>
<path fill="none" stroke="#C45E29" d="M93.621,39.87H64.276c-2.024,0-3.666,1.641-3.666,3.666v54.413
	c0,2.024,1.641,3.666,3.666,3.666h29.345c2.024,0,3.666-1.642,3.666-3.666V43.535C97.286,41.511,95.645,39.87,93.621,39.87z"/>
</svg>
