<?xml version="1.0" encoding="utf-8"?>
<!-- Generator: Adobe Illustrator 14.0.0, SVG Export Plug-In  -->
<!DOCTYPE svg PUBLIC "-//W3C//DTD SVG 1.1//EN" "http://www.w3.org/Graphics/SVG/1.1/DTD/svg11.dtd" [
	<!ENTITY ns_flows "http://ns.adobe.com/Flows/1.0/">
]>
<svg version="1.1"
	 xmlns="http://www.w3.org/2000/svg" xmlns:xlink="http://www.w3.org/1999/xlink" xmlns:a="http://ns.adobe.com/AdobeSVGViewerExtensions/3.0/"
	 x="0px" y="0px" width="192px" height="101px" viewBox="0 0 192 101" enable-background="new 0 0 192 101" xml:space="preserve">
<defs>
</defs>
<path fill="#C45E29" d="M169.731,39.37h-36.759h-29.344h-0.001c-2.024,0-3.666,1.641-3.666,3.666v54.413
	c0,2.024,1.641,3.666,3.666,3.666h29.345c2.024,0,3.666-1.642,3.666-3.666V74.957c0.037-1.726,1.261-3.159,2.893-3.505h30.201
	c2.024,0,3.666-1.642,3.666-3.666v-24.75C173.396,41.011,171.755,39.37,169.731,39.37z"/>
<path fill="#C45E29" d="M188.298,0H3.666C1.641,0,0,1.641,0,3.666v29.33c0,2.024,1.641,3.666,3.666,3.666H17.76
	c1.768,0.262,3.128,1.771,3.128,3.611v9.554h0.015v47.621c0,2.024,1.641,3.666,3.666,3.666h28.691c2.024,0,3.666-1.642,3.666-3.666
	V49.874h0.038V40.32c0-2,1.604-3.619,3.593-3.658h127.741c2.024,0,3.666-1.642,3.666-3.666V3.666C191.964,1.641,190.323,0,188.298,0
	z"/>
<path fill="#C45E29" d="M93.121,39.37H63.776c-2.024,0-3.666,1.641-3.666,3.666v54.413c0,2.024,1.641,3.666,3.666,3.666h29.345
	c2.024,0,3.666-1.642,3.666-3.666V43.035C96.786,41.011,95.145,39.37,93.121,39.37z"/>
</svg>
